<?xml version="1.0" encoding="UTF-8" standalone="no"?>
<svg
   xmlns:dc="http://purl.org/dc/elements/1.1/"
   xmlns:cc="http://creativecommons.org/ns#"
   xmlns:rdf="http://www.w3.org/1999/02/22-rdf-syntax-ns#"
   xmlns:svg="http://www.w3.org/2000/svg"
   xmlns="http://www.w3.org/2000/svg"
   xmlns:sodipodi="http://sodipodi.sourceforge.net/DTD/sodipodi-0.dtd"
   xmlns:inkscape="http://www.inkscape.org/namespaces/inkscape"
   width="104.46731"
   height="60.323055"
   id="svg3039"
   version="1.1"
   inkscape:version="0.48.2 r9819"
   sodipodi:docname="parakeet.svg">
  <metadata
     id="metadata3053">
    <rdf:RDF>
      <cc:Work
         rdf:about="">
        <dc:format>image/svg+xml</dc:format>
        <dc:type
           rdf:resource="http://purl.org/dc/dcmitype/StillImage" />
      </cc:Work>
    </rdf:RDF>
  </metadata>
  <defs
     id="defs3051" />
  <sodipodi:namedview
     pagecolor="#ffffff"
     bordercolor="#666666"
     borderopacity="1"
     objecttolerance="10"
     gridtolerance="10"
     guidetolerance="10"
     inkscape:pageopacity="0"
     inkscape:pageshadow="2"
     inkscape:window-width="1920"
     inkscape:window-height="1025"
     id="namedview3049"
     showgrid="false"
     inkscape:zoom="5.6568542"
     inkscape:cx="99.741121"
     inkscape:cy="-5.2315569"
     inkscape:window-x="0"
     inkscape:window-y="26"
     inkscape:window-maximized="1"
     inkscape:current-layer="g3043"
     fit-margin-top="0"
     fit-margin-left="0"
     fit-margin-right="0"
     fit-margin-bottom="0" />
  <title
     id="title3041">Parakeet</title>
  <g
     id="g3043"
     transform="translate(-11.24106,-8.5929556)">
    <title
       id="title3045">Layer 1</title>
    <g
       id="g3">
      <path
         clip-rule="evenodd"
         id="path5"
         d="m 42.407918,68.916012 c 0.465424,-2.40593 2.882645,-3.901718 3.058044,-6.328987 -2.314255,0.623169 -3.968109,1.271606 -6.174835,1.662468 -2.368423,0.419601 -3.918045,-0.618294 -5.586639,0.965561 0.380798,-2.978561 5.684738,-1.602402 7.644913,-2.842705 -1.65741,0.179901 -1.937531,-1.810829 -3.528351,-0.16066 0.98735,-2.700127 4.666931,-0.343338 6.645126,-0.965797 1.543289,-0.485229 2.954865,-2.152802 4.057343,-3.271614 2.061844,-2.091339 4.559128,-4.173424 6.233322,-6.543655 -1.237473,-0.100372 -2.537949,-0.06583 -3.763474,0.05356 0.03253,0.154404 0.09482,0.278664 0.117432,0.482437 -1.387451,-0.844795 -1.446152,0.170853 -1.999313,0.375572 -1.383881,0.512108 -2.361801,0.569603 -3.881149,0.589989 -3.086563,0.04151 -3.197891,0.488014 -4.880722,2.41362 -0.923004,1.055969 -3.07637,1.595909 -2.117004,3.003822 -2.795212,-1.186279 1.848068,-3.940437 2.117004,-5.417442 -2.256058,0.446045 -10.607132,1.286209 -11.467102,2.789169 -0.09888,-2.552917 5.382507,-2.861259 7.409515,-3.003593 0,-0.03571 0,-0.07188 0,-0.10733 -0.05872,0.01761 -0.07857,0 -0.05872,-0.0538 -1.641144,-0.190346 -2.958923,-1.589905 -4.175293,-0.375336 0.378754,-2.32988 3.520721,-0.790771 4.586838,-0.536453 2.349854,0.560562 3.697388,-0.650063 6.233322,-1.01889 C 31.612138,49.23958 20.660829,40.913836 20.532182,29.868723 c -0.04907,-4.23555 1.83255,-8.617622 -0.470291,-12.550873 -1.827454,-3.121368 -5.516449,-3.672661 -8.820831,-4.934525 2.197311,-2.066307 6.07724,-0.725853 8.526733,-1.555573 1.433456,-0.485466 3.045609,-1.5766914 4.645554,-1.9309234 4.263504,-0.943787 8.124344,0.40593 11.467133,2.7353674 2.300797,1.60334 4.123169,3.885262 6.645126,5.202751 3.224304,1.684479 7.344421,2.191963 10.82016,3.432724 3.635849,1.298271 6.810867,3.189758 10.526306,4.290955 3.687714,1.093094 7.427811,2.205643 10.878876,3.861839 3.788651,1.818253 7.507904,1.915855 11.702225,2.574486 2.148056,0.337311 6.465942,0.574715 7.527252,2.413826 -2.259659,0.449295 -4.804214,0.714516 -7.174408,1.233574 7.133469,0 14.398583,1.092392 21.522633,1.743141 2.1254,0.194038 5.5269,-0.44117 6.70387,1.26046 0.35254,0.509796 0.1042,1.55954 -0.29416,1.82383 1.02471,1.03466 -0.12629,1.416939 -1.29388,1.233559 3.11858,0.165756 2.87859,1.516632 0.11769,1.501801 -5.20987,-0.02851 -10.73856,-0.976471 -15.994708,-1.340912 -3.318344,-0.230202 -6.630661,-0.475708 -9.938599,-0.77755 -1.795654,-0.164139 -3.870209,0.90715 -5.645081,1.31424 -3.514862,0.806313 -8.133728,0.342194 -10.702454,2.46714 -4.09317,3.386131 -8.515808,5.332352 -13.113846,7.026573 -2.05014,0.755539 -8.735199,6.389038 -9.1147,8.796135 -0.0323,0.203773 -0.314713,0.551514 -0.411575,0.751122 1.9655,0.08438 7.338608,-2.596268 7.291824,0.75045 -1.647232,-1.815941 -1.999557,-0.198448 -3.175507,0.26799 -0.866058,0.343788 -2.15004,0.307182 -3.0578,0.536453 -2.213364,0.559174 -2.707016,1.240997 -4.116318,3.218277 -0.940063,1.318657 -2.09819,2.58075 -3.175491,3.700951"
         inkscape:connector-curvature="0"
         style="fill:#3fb921;fill-opacity:1;fill-rule:evenodd" />
    </g>
  </g>
</svg>
